<svg xmlns="http://www.w3.org/2000/svg" width="1024" height="1024" viewBox="0 0 1024 1024">
<g fill="none" stroke-linecap="round" stroke-linejoin="round">
<path d="M 790.13 364.12 L 792.12 368.10 L 793.92 372.17 L 795.53 376.35 L 796.95 380.62 L 798.17 384.97 L 799.19 389.42 L 800.02 393.95 L 800.64 398.56 L 801.08 403.24 L 801.31 408.00 L 801.34 412.84 L 801.18 417.74 L 800.82 422.70 L 800.26 427.73 L 799.50 432.81 L 798.54 437.95 L 797.39 443.14 L 796.05 448.38 L 794.51 453.66 L 792.77 458.98 L 790.84 464.34 L 788.73 469.73 L 786.42 475.14 L 783.92 480.59 L 781.24 486.05 L 778.37 491.53 L 775.32 497.03 L 772.09 502.54 L 768.68 508.05 L 765.10 513.57 L 761.34 519.08 L 757.41 524.59 L 753.32 530.10 L 749.06 535.58 L 744.63 541.06 L 740.05 546.51 L 735.31 551.94 L 730.41 557.34 L 725.37 562.71 L 720.18 568.05 L 714.85 573.35 L 709.38 578.60 L 703.77 583.81 L 698.04 588.97 L 692.17 594.08 L 686.18 599.13 L 680.07 604.13 L 673.85 609.06 L 667.52 613.92 L 661.08 618.71 L 654.53 623.43 L 647.89 628.07 L 641.16 632.64 L 634.34 637.12 L 627.43 641.51 L 620.45 645.82 L 613.39 650.04 L 606.26 654.16 L 599.06 658.18 L 591.81 662.10 L 584.50 665.92 L 577.14 669.64 L 569.74 673.24 L 562.30 676.74 L 554.82 680.12 L 547.32 683.39 L 539.79 686.54 L 532.24 689.57 L 524.68 692.48 L 517.11 695.26 L 509.53 697.92 L 501.96 700.45 L 494.39 702.86 L 486.84 705.13 L 479.30 707.27 L 471.79 709.27 L 464.30 711.14 L 456.84 712.88 L 449.43 714.48 L 442.05 715.93 L 434.73 717.25 L 427.45 718.43 L 420.24 719.46 L 413.09 720.36 L 406.00 721.11 L 398.99 721.72 L 392.06 722.18 L 385.21 722.50 L 378.44 722.68 L 371.77 722.71 L 365.19 722.59 L 358.71 722.34 L 352.34 721.93 L 346.08 721.39 L 339.93 720.70 L 333.90 719.87 L 327.99 718.89 L 322.21 717.78 L 316.56 716.52 L 311.04 715.12 L 305.66 713.58 L 300.42 711.91 L 295.32 710.10 L 290.38 708.15 L 285.58 706.07 L 280.95 703.85 L 276.47 701.51 L 272.15 699.03 L 267.99 696.42 L 264.00 693.69 L 260.19 690.84 L 256.54 687.86 L 253.07 684.76 L 249.78 681.54 L 246.67 678.21 L 243.74 674.76 L 240.99 671.20 L 238.43 667.54 L 236.06 663.76 L 233.87 659.88 L 231.88 655.90 L 230.08 651.83 L 228.47 647.65 L 227.05 643.38 L 225.83 639.03 L 224.81 634.58 L 223.98 630.05 L 223.36 625.44 L 222.92 620.76 L 222.69 616.00 L 222.66 611.16 L 222.82 606.26 L 223.18 601.30 L 223.74 596.27 L 224.50 591.19 L 225.46 586.05 L 226.61 580.86 L 227.95 575.62 L 229.49 570.34 L 231.23 565.02 L 233.16 559.66 L 235.27 554.27 L 237.58 548.86 L 240.08 543.41 L 242.76 537.95 L 245.63 532.47 L 248.68 526.97 L 251.91 521.46 L 255.32 515.95 L 258.90 510.43 L 262.66 504.92 L 266.59 499.41 L 270.68 493.90 L 274.94 488.42 L 279.37 482.94 L 283.95 477.49 L 288.69 472.06 L 293.59 466.66 L 298.63 461.29 L 303.82 455.95 L 309.15 450.65 L 314.62 445.40 L 320.23 440.19 L 325.96 435.03 L 331.83 429.92 L 337.82 424.87 L 343.93 419.87 L 350.15 414.94 L 356.48 410.08 L 362.92 405.29 L 369.47 400.57 L 376.11 395.93 L 382.84 391.36 L 389.66 386.88 L 396.57 382.49 L 403.55 378.18 L 410.61 373.96 L 417.74 369.84 L 424.94 365.82 L 432.19 361.90 L 439.50 358.08 L 446.86 354.36 L 454.26 350.76 L 461.70 347.26 L 469.18 343.88 L 476.68 340.61 L 484.21 337.46 L 491.76 334.43 L 499.32 331.52 L 506.89 328.74 L 514.47 326.08 L 522.04 323.55 L 529.61 321.14 L 537.16 318.87 L 544.70 316.73 L 552.21 314.73 L 559.70 312.86 L 567.16 311.12 L 574.57 309.52 L 581.95 308.07 L 589.27 306.75 L 596.55 305.57 L 603.76 304.54 L 610.91 303.64 L 618.00 302.89 L 625.01 302.28 L 631.94 301.82 L 638.79 301.50 L 645.56 301.32 L 652.23 301.29 L 658.81 301.41 L 665.29 301.66 L 671.66 302.07 L 677.92 302.61 L 684.07 303.30 L 690.10 304.13 L 696.01 305.11 L 701.79 306.22 L 707.44 307.48 L 712.96 308.88 L 718.34 310.42 L 723.58 312.09 L 728.68 313.90 L 733.62 315.85 L 738.42 317.93 L 743.05 320.15 L 747.53 322.49 L 751.85 324.97 L 756.01 327.58 L 760.00 330.31 L 763.81 333.16 L 767.46 336.14 L 770.93 339.24 L 774.22 342.46 L 777.33 345.79 L 780.26 349.24 L 783.01 352.80 L 785.57 356.46 L 787.94 360.24 L 790.13 364.12" stroke="#B98A2B" stroke-width="18" opacity="0.95"/>
<path d="M 779.14 678.92 L 776.69 682.64 L 774.05 686.24 L 771.24 689.72 L 768.26 693.08 L 765.09 696.31 L 761.75 699.42 L 758.25 702.40 L 754.57 705.25 L 750.72 707.97 L 746.72 710.55 L 742.55 713.00 L 738.22 715.31 L 733.74 717.47 L 729.11 719.50 L 724.33 721.39 L 719.40 723.13 L 714.33 724.73 L 709.12 726.18 L 703.78 727.49 L 698.30 728.65 L 692.70 729.65 L 686.97 730.51 L 681.13 731.22 L 675.17 731.78 L 669.09 732.19 L 662.91 732.45 L 656.62 732.56 L 650.24 732.52 L 643.76 732.32 L 637.19 731.98 L 630.54 731.48 L 623.80 730.83 L 616.99 730.04 L 610.10 729.09 L 603.15 727.99 L 596.14 726.75 L 589.06 725.36 L 581.94 723.82 L 574.77 722.14 L 567.55 720.32 L 560.30 718.35 L 553.01 716.24 L 545.69 713.99 L 538.36 711.60 L 531.00 709.07 L 523.63 706.41 L 516.25 703.62 L 508.87 700.69 L 501.49 697.64 L 494.12 694.46 L 486.76 691.15 L 479.42 687.72 L 472.10 684.17 L 464.81 680.51 L 457.55 676.72 L 450.33 672.83 L 443.15 668.82 L 436.02 664.71 L 428.94 660.49 L 421.91 656.17 L 414.95 651.75 L 408.06 647.23 L 401.23 642.63 L 394.48 637.93 L 387.82 633.15 L 381.23 628.28 L 374.74 623.33 L 368.34 618.31 L 362.04 613.22 L 355.84 608.05 L 349.75 602.82 L 343.77 597.53 L 337.91 592.18 L 332.16 586.77 L 326.54 581.31 L 321.05 575.81 L 315.68 570.26 L 310.46 564.67 L 305.36 559.05 L 300.42 553.39 L 295.61 547.71 L 290.96 542.00 L 286.45 536.27 L 282.10 530.52 L 277.91 524.76 L 273.88 518.99 L 270.01 513.22 L 266.30 507.44 L 262.77 501.67 L 259.41 495.91 L 256.22 490.16 L 253.20 484.42 L 250.36 478.70 L 247.70 473.00 L 245.23 467.33 L 242.93 461.70 L 240.82 456.09 L 238.90 450.52 L 237.16 445.00 L 235.61 439.52 L 234.25 434.09 L 233.08 428.72 L 232.10 423.40 L 231.32 418.15 L 230.72 412.95 L 230.32 407.83 L 230.12 402.77 L 230.10 397.80 L 230.28 392.90 L 230.65 388.08 L 231.22 383.34 L 231.97 378.70 L 232.92 374.14 L 234.06 369.68 L 235.39 365.32 L 236.91 361.06 L 238.62 356.90 L 240.52 352.85 L 242.60 348.91 L 244.86 345.08 L 247.31 341.36 L 249.95 337.76 L 252.76 334.28 L 255.74 330.92 L 258.91 327.69 L 262.25 324.58 L 265.75 321.60 L 269.43 318.75 L 273.28 316.03 L 277.28 313.45 L 281.45 311.00 L 285.78 308.69 L 290.26 306.53 L 294.89 304.50 L 299.67 302.61 L 304.60 300.87 L 309.67 299.27 L 314.88 297.82 L 320.22 296.51 L 325.70 295.35 L 331.30 294.35 L 337.03 293.49 L 342.87 292.78 L 348.83 292.22 L 354.91 291.81 L 361.09 291.55 L 367.38 291.44 L 373.76 291.48 L 380.24 291.68 L 386.81 292.02 L 393.46 292.52 L 400.20 293.17 L 407.01 293.96 L 413.90 294.91 L 420.85 296.01 L 427.86 297.25 L 434.94 298.64 L 442.06 300.18 L 449.23 301.86 L 456.45 303.68 L 463.70 305.65 L 470.99 307.76 L 478.31 310.01 L 485.64 312.40 L 493.00 314.93 L 500.37 317.59 L 507.75 320.38 L 515.13 323.31 L 522.51 326.36 L 529.88 329.54 L 537.24 332.85 L 544.58 336.28 L 551.90 339.83 L 559.19 343.49 L 566.45 347.28 L 573.67 351.17 L 580.85 355.18 L 587.98 359.29 L 595.06 363.51 L 602.09 367.83 L 609.05 372.25 L 615.94 376.77 L 622.77 381.37 L 629.52 386.07 L 636.18 390.85 L 642.77 395.72 L 649.26 400.67 L 655.66 405.69 L 661.96 410.78 L 668.16 415.95 L 674.25 421.18 L 680.23 426.47 L 686.09 431.82 L 691.84 437.23 L 697.46 442.69 L 702.95 448.19 L 708.32 453.74 L 713.54 459.33 L 718.64 464.95 L 723.58 470.61 L 728.39 476.29 L 733.04 482.00 L 737.55 487.73 L 741.90 493.48 L 746.09 499.24 L 750.12 505.01 L 753.99 510.78 L 757.70 516.56 L 761.23 522.33 L 764.59 528.09 L 767.78 533.84 L 770.80 539.58 L 773.64 545.30 L 776.30 551.00 L 778.77 556.67 L 781.07 562.30 L 783.18 567.91 L 785.10 573.48 L 786.84 579.00 L 788.39 584.48 L 789.75 589.91 L 790.92 595.28 L 791.90 600.60 L 792.68 605.85 L 793.28 611.05 L 793.68 616.17 L 793.88 621.23 L 793.90 626.20 L 793.72 631.10 L 793.35 635.92 L 792.78 640.66 L 792.03 645.30 L 791.08 649.86 L 789.94 654.32 L 788.61 658.68 L 787.09 662.94 L 785.38 667.10 L 783.48 671.15 L 781.40 675.09 L 779.14 678.92" stroke="#158A98" stroke-width="18" opacity="0.95"/>
<path d="M 517.50 826.95 L 513.05 826.92 L 508.59 826.68 L 504.14 826.21 L 499.70 825.54 L 495.26 824.64 L 490.84 823.54 L 486.43 822.22 L 482.04 820.69 L 477.67 818.94 L 473.32 816.99 L 469.00 814.82 L 464.70 812.45 L 460.44 809.88 L 456.22 807.10 L 452.03 804.11 L 447.89 800.93 L 443.79 797.55 L 439.73 793.97 L 435.73 790.20 L 431.77 786.24 L 427.88 782.09 L 424.04 777.76 L 420.26 773.24 L 416.54 768.55 L 412.89 763.67 L 409.30 758.63 L 405.79 753.42 L 402.35 748.04 L 398.99 742.50 L 395.70 736.80 L 392.49 730.95 L 389.36 724.95 L 386.32 718.80 L 383.37 712.51 L 380.50 706.08 L 377.72 699.52 L 375.03 692.84 L 372.44 686.02 L 369.95 679.09 L 367.55 672.05 L 365.25 664.89 L 363.05 657.63 L 360.95 650.27 L 358.96 642.81 L 357.07 635.27 L 355.29 627.64 L 353.61 619.93 L 352.04 612.15 L 350.59 604.30 L 349.24 596.38 L 348.01 588.41 L 346.88 580.38 L 345.87 572.31 L 344.98 564.20 L 344.20 556.05 L 343.53 547.87 L 342.98 539.67 L 342.55 531.45 L 342.23 523.21 L 342.03 514.97 L 341.94 506.72 L 341.97 498.48 L 342.12 490.25 L 342.38 482.03 L 342.76 473.83 L 343.26 465.66 L 343.87 457.52 L 344.60 449.42 L 345.44 441.36 L 346.39 433.35 L 347.46 425.39 L 348.65 417.50 L 349.94 409.66 L 351.35 401.90 L 352.86 394.21 L 354.48 386.61 L 356.22 379.09 L 358.06 371.66 L 360.00 364.33 L 362.05 357.09 L 364.20 349.97 L 366.45 342.95 L 368.81 336.05 L 371.26 329.28 L 373.80 322.62 L 376.45 316.10 L 379.18 309.71 L 382.01 303.46 L 384.92 297.35 L 387.92 291.39 L 391.01 285.58 L 394.18 279.93 L 397.43 274.44 L 400.76 269.10 L 404.16 263.94 L 407.64 258.94 L 411.19 254.12 L 414.81 249.47 L 418.50 245.01 L 422.25 240.73 L 426.06 236.63 L 429.94 232.72 L 433.86 229.01 L 437.84 225.48 L 441.87 222.16 L 445.95 219.03 L 450.08 216.10 L 454.25 213.38 L 458.45 210.86 L 462.70 208.55 L 466.97 206.44 L 471.28 204.55 L 475.62 202.86 L 479.98 201.39 L 484.36 200.13 L 488.77 199.08 L 493.18 198.25 L 497.61 197.63 L 502.05 197.23 L 506.50 197.05 L 510.95 197.08 L 515.41 197.32 L 519.86 197.79 L 524.30 198.46 L 528.74 199.36 L 533.16 200.46 L 537.57 201.78 L 541.96 203.31 L 546.33 205.06 L 550.68 207.01 L 555.00 209.18 L 559.30 211.55 L 563.56 214.12 L 567.78 216.90 L 571.97 219.89 L 576.11 223.07 L 580.21 226.45 L 584.27 230.03 L 588.27 233.80 L 592.23 237.76 L 596.12 241.91 L 599.96 246.24 L 603.74 250.76 L 607.46 255.45 L 611.11 260.33 L 614.70 265.37 L 618.21 270.58 L 621.65 275.96 L 625.01 281.50 L 628.30 287.20 L 631.51 293.05 L 634.64 299.05 L 637.68 305.20 L 640.63 311.49 L 643.50 317.92 L 646.28 324.48 L 648.97 331.16 L 651.56 337.98 L 654.05 344.91 L 656.45 351.95 L 658.75 359.11 L 660.95 366.37 L 663.05 373.73 L 665.04 381.19 L 666.93 388.73 L 668.71 396.36 L 670.39 404.07 L 671.96 411.85 L 673.41 419.70 L 674.76 427.62 L 675.99 435.59 L 677.12 443.62 L 678.13 451.69 L 679.02 459.80 L 679.80 467.95 L 680.47 476.13 L 681.02 484.33 L 681.45 492.55 L 681.77 500.79 L 681.97 509.03 L 682.06 517.28 L 682.03 525.52 L 681.88 533.75 L 681.62 541.97 L 681.24 550.17 L 680.74 558.34 L 680.13 566.48 L 679.40 574.58 L 678.56 582.64 L 677.61 590.65 L 676.54 598.61 L 675.35 606.50 L 674.06 614.34 L 672.65 622.10 L 671.14 629.79 L 669.52 637.39 L 667.78 644.91 L 665.94 652.34 L 664.00 659.67 L 661.95 666.91 L 659.80 674.03 L 657.55 681.05 L 655.19 687.95 L 652.74 694.72 L 650.20 701.38 L 647.55 707.90 L 644.82 714.29 L 641.99 720.54 L 639.08 726.65 L 636.08 732.61 L 632.99 738.42 L 629.82 744.07 L 626.57 749.56 L 623.24 754.90 L 619.84 760.06 L 616.36 765.06 L 612.81 769.88 L 609.19 774.53 L 605.50 778.99 L 601.75 783.27 L 597.94 787.37 L 594.06 791.28 L 590.14 794.99 L 586.16 798.52 L 582.13 801.84 L 578.05 804.97 L 573.92 807.90 L 569.75 810.62 L 565.55 813.14 L 561.30 815.45 L 557.03 817.56 L 552.72 819.45 L 548.38 821.14 L 544.02 822.61 L 539.64 823.87 L 535.23 824.92 L 530.82 825.75 L 526.39 826.37 L 521.95 826.77 L 517.50 826.95" stroke="#158A98" stroke-width="14" opacity="0.75"/>
<path d="M 609.34 212.42 L 613.54 213.90 L 617.67 215.58 L 621.73 217.46 L 625.71 219.55 L 629.61 221.84 L 633.43 224.32 L 637.17 227.01 L 640.83 229.89 L 644.39 232.96 L 647.87 236.22 L 651.25 239.67 L 654.54 243.31 L 657.73 247.14 L 660.82 251.14 L 663.80 255.33 L 666.69 259.68 L 669.46 264.22 L 672.13 268.92 L 674.69 273.79 L 677.14 278.82 L 679.47 284.01 L 681.69 289.36 L 683.80 294.86 L 685.78 300.51 L 687.65 306.30 L 689.40 312.24 L 691.02 318.31 L 692.52 324.52 L 693.90 330.85 L 695.15 337.31 L 696.28 343.89 L 697.28 350.58 L 698.16 357.38 L 698.91 364.29 L 699.53 371.30 L 700.02 378.41 L 700.38 385.61 L 700.61 392.89 L 700.71 400.26 L 700.69 407.70 L 700.53 415.22 L 700.25 422.80 L 699.84 430.44 L 699.29 438.14 L 698.62 445.89 L 697.82 453.68 L 696.90 461.52 L 695.85 469.39 L 694.67 477.28 L 693.36 485.21 L 691.94 493.15 L 690.38 501.10 L 688.71 509.06 L 686.92 517.02 L 685.00 524.98 L 682.97 532.93 L 680.82 540.87 L 678.55 548.78 L 676.17 556.67 L 673.68 564.53 L 671.08 572.36 L 668.36 580.14 L 665.54 587.88 L 662.62 595.56 L 659.59 603.19 L 656.46 610.75 L 653.23 618.25 L 649.91 625.67 L 646.49 633.02 L 642.98 640.28 L 639.38 647.46 L 635.69 654.54 L 631.91 661.52 L 628.06 668.40 L 624.12 675.18 L 620.11 681.84 L 616.02 688.39 L 611.87 694.81 L 607.64 701.12 L 603.35 707.29 L 598.99 713.32 L 594.58 719.22 L 590.11 724.98 L 585.59 730.59 L 581.01 736.05 L 576.39 741.36 L 571.72 746.51 L 567.02 751.50 L 562.27 756.33 L 557.49 760.98 L 552.68 765.47 L 547.85 769.78 L 542.98 773.92 L 538.10 777.88 L 533.20 781.66 L 528.28 785.25 L 523.36 788.65 L 518.42 791.86 L 513.48 794.88 L 508.54 797.71 L 503.60 800.35 L 498.67 802.78 L 493.75 805.02 L 488.84 807.05 L 483.94 808.88 L 479.07 810.51 L 474.21 811.94 L 469.39 813.15 L 464.59 814.17 L 459.82 814.97 L 455.09 815.57 L 450.40 815.96 L 445.75 816.14 L 441.15 816.11 L 436.60 815.88 L 432.09 815.43 L 427.64 814.78 L 423.25 813.92 L 418.93 812.86 L 414.66 811.58 L 410.46 810.10 L 406.33 808.42 L 402.27 806.54 L 398.29 804.45 L 394.39 802.16 L 390.57 799.68 L 386.83 796.99 L 383.17 794.11 L 379.61 791.04 L 376.13 787.78 L 372.75 784.33 L 369.46 780.69 L 366.27 776.86 L 363.18 772.86 L 360.20 768.67 L 357.31 764.32 L 354.54 759.78 L 351.87 755.08 L 349.31 750.21 L 346.86 745.18 L 344.53 739.99 L 342.31 734.64 L 340.20 729.14 L 338.22 723.49 L 336.35 717.70 L 334.60 711.76 L 332.98 705.69 L 331.48 699.48 L 330.10 693.15 L 328.85 686.69 L 327.72 680.11 L 326.72 673.42 L 325.84 666.62 L 325.09 659.71 L 324.47 652.70 L 323.98 645.59 L 323.62 638.39 L 323.39 631.11 L 323.29 623.74 L 323.31 616.30 L 323.47 608.78 L 323.75 601.20 L 324.16 593.56 L 324.71 585.86 L 325.38 578.11 L 326.18 570.32 L 327.10 562.48 L 328.15 554.61 L 329.33 546.72 L 330.64 538.79 L 332.06 530.85 L 333.62 522.90 L 335.29 514.94 L 337.08 506.98 L 339.00 499.02 L 341.03 491.07 L 343.18 483.13 L 345.45 475.22 L 347.83 467.33 L 350.32 459.47 L 352.92 451.64 L 355.64 443.86 L 358.46 436.12 L 361.38 428.44 L 364.41 420.81 L 367.54 413.25 L 370.77 405.75 L 374.09 398.33 L 377.51 390.98 L 381.02 383.72 L 384.62 376.54 L 388.31 369.46 L 392.09 362.48 L 395.94 355.60 L 399.88 348.82 L 403.89 342.16 L 407.98 335.61 L 412.13 329.19 L 416.36 322.88 L 420.65 316.71 L 425.01 310.68 L 429.42 304.78 L 433.89 299.02 L 438.41 293.41 L 442.99 287.95 L 447.61 282.64 L 452.28 277.49 L 456.98 272.50 L 461.73 267.67 L 466.51 263.02 L 471.32 258.53 L 476.15 254.22 L 481.02 250.08 L 485.90 246.12 L 490.80 242.34 L 495.72 238.75 L 500.64 235.35 L 505.58 232.14 L 510.52 229.12 L 515.46 226.29 L 520.40 223.65 L 525.33 221.22 L 530.25 218.98 L 535.16 216.95 L 540.06 215.12 L 544.93 213.49 L 549.79 212.06 L 554.61 210.85 L 559.41 209.83 L 564.18 209.03 L 568.91 208.43 L 573.60 208.04 L 578.25 207.86 L 582.85 207.89 L 587.40 208.12 L 591.91 208.57 L 596.36 209.22 L 600.75 210.08 L 605.07 211.14 L 609.34 212.42" stroke="#158A98" stroke-width="10" opacity="0.55"/>
<path d="M 823.93 555.84 L 823.21 560.23 L 822.27 564.59 L 821.12 568.91 L 819.75 573.20 L 818.18 577.44 L 816.39 581.63 L 814.40 585.78 L 812.20 589.88 L 809.79 593.93 L 807.18 597.92 L 804.37 601.85 L 801.36 605.72 L 798.14 609.52 L 794.74 613.26 L 791.14 616.93 L 787.34 620.52 L 783.36 624.04 L 779.19 627.49 L 774.84 630.85 L 770.31 634.14 L 765.61 637.34 L 760.72 640.45 L 755.67 643.48 L 750.45 646.42 L 745.07 649.26 L 739.53 652.01 L 733.83 654.67 L 727.98 657.22 L 721.98 659.68 L 715.84 662.04 L 709.56 664.29 L 703.14 666.44 L 696.59 668.48 L 689.92 670.42 L 683.12 672.25 L 676.21 673.96 L 669.18 675.57 L 662.05 677.06 L 654.81 678.44 L 647.48 679.71 L 640.05 680.86 L 632.53 681.90 L 624.94 682.82 L 617.26 683.62 L 609.51 684.31 L 601.70 684.87 L 593.82 685.32 L 585.89 685.65 L 577.91 685.86 L 569.88 685.96 L 561.81 685.93 L 553.71 685.78 L 545.58 685.52 L 537.43 685.13 L 529.26 684.63 L 521.08 684.01 L 512.89 683.27 L 504.70 682.41 L 496.51 681.44 L 488.34 680.35 L 480.18 679.14 L 472.05 677.82 L 463.94 676.39 L 455.86 674.84 L 447.83 673.18 L 439.83 671.41 L 431.89 669.54 L 424.00 667.55 L 416.17 665.46 L 408.41 663.26 L 400.72 660.96 L 393.11 658.56 L 385.57 656.06 L 378.12 653.45 L 370.77 650.75 L 363.51 647.96 L 356.35 645.07 L 349.30 642.09 L 342.37 639.03 L 335.54 635.87 L 328.84 632.63 L 322.27 629.31 L 315.82 625.91 L 309.51 622.43 L 303.34 618.87 L 297.31 615.24 L 291.42 611.54 L 285.69 607.77 L 280.12 603.94 L 274.70 600.04 L 269.44 596.08 L 264.36 592.07 L 259.44 588.00 L 254.69 583.87 L 250.12 579.70 L 245.73 575.48 L 241.53 571.22 L 237.50 566.92 L 233.67 562.58 L 230.03 558.21 L 226.58 553.80 L 223.32 549.37 L 220.27 544.91 L 217.41 540.42 L 214.76 535.92 L 212.31 531.40 L 210.06 526.87 L 208.02 522.33 L 206.19 517.78 L 204.57 513.23 L 203.16 508.67 L 201.96 504.12 L 200.98 499.57 L 200.20 495.04 L 199.65 490.51 L 199.30 486.00 L 199.17 481.50 L 199.25 477.03 L 199.55 472.58 L 200.07 468.16 L 200.79 463.77 L 201.73 459.41 L 202.88 455.09 L 204.25 450.80 L 205.82 446.56 L 207.61 442.37 L 209.60 438.22 L 211.80 434.12 L 214.21 430.07 L 216.82 426.08 L 219.63 422.15 L 222.64 418.28 L 225.86 414.48 L 229.26 410.74 L 232.86 407.07 L 236.66 403.48 L 240.64 399.96 L 244.81 396.51 L 249.16 393.15 L 253.69 389.86 L 258.39 386.66 L 263.28 383.55 L 268.33 380.52 L 273.55 377.58 L 278.93 374.74 L 284.47 371.99 L 290.17 369.33 L 296.02 366.78 L 302.02 364.32 L 308.16 361.96 L 314.44 359.71 L 320.86 357.56 L 327.41 355.52 L 334.08 353.58 L 340.88 351.75 L 347.79 350.04 L 354.82 348.43 L 361.95 346.94 L 369.19 345.56 L 376.52 344.29 L 383.95 343.14 L 391.47 342.10 L 399.06 341.18 L 406.74 340.38 L 414.49 339.69 L 422.30 339.13 L 430.18 338.68 L 438.11 338.35 L 446.09 338.14 L 454.12 338.04 L 462.19 338.07 L 470.29 338.22 L 478.42 338.48 L 486.57 338.87 L 494.74 339.37 L 502.92 339.99 L 511.11 340.73 L 519.30 341.59 L 527.49 342.56 L 535.66 343.65 L 543.82 344.86 L 551.95 346.18 L 560.06 347.61 L 568.14 349.16 L 576.17 350.82 L 584.17 352.59 L 592.11 354.46 L 600.00 356.45 L 607.83 358.54 L 615.59 360.74 L 623.28 363.04 L 630.89 365.44 L 638.43 367.94 L 645.88 370.55 L 653.23 373.25 L 660.49 376.04 L 667.65 378.93 L 674.70 381.91 L 681.63 384.97 L 688.46 388.13 L 695.16 391.37 L 701.73 394.69 L 708.18 398.09 L 714.49 401.57 L 720.66 405.13 L 726.69 408.76 L 732.58 412.46 L 738.31 416.23 L 743.88 420.06 L 749.30 423.96 L 754.56 427.92 L 759.64 431.93 L 764.56 436.00 L 769.31 440.13 L 773.88 444.30 L 778.27 448.52 L 782.47 452.78 L 786.50 457.08 L 790.33 461.42 L 793.97 465.79 L 797.42 470.20 L 800.68 474.63 L 803.73 479.09 L 806.59 483.58 L 809.24 488.08 L 811.69 492.60 L 813.94 497.13 L 815.98 501.67 L 817.81 506.22 L 819.43 510.77 L 820.84 515.33 L 822.04 519.88 L 823.02 524.43 L 823.80 528.96 L 824.35 533.49 L 824.70 538.00 L 824.83 542.50 L 824.75 546.97 L 824.45 551.42 L 823.93 555.84" stroke="#B98A2B" stroke-width="8" opacity="0.55"/>
<circle cx="512" cy="512" r="158" stroke="#158A98" stroke-width="18" opacity="0.95"/>
<path d="M 893.48 430.91 L 894.57 436.70 L 895.40 442.54 L 895.97 448.43 L 896.28 454.36 L 896.32 460.33 L 896.10 466.34 L 895.61 472.38 L 894.87 478.44 L 893.86 484.53 L 892.59 490.64 L 891.05 496.76 L 889.26 502.89 L 887.21 509.03 L 884.90 515.17 L 882.34 521.31 L 879.52 527.44 L 876.46 533.56 L 873.14 539.67 L 869.57 545.76 L 865.76 551.82 L 861.71 557.86 L 857.41 563.86 L 852.88 569.83 L 848.12 575.76 L 843.12 581.65 L 837.90 587.49 L 832.46 593.27 L 826.80 599.01 L 820.92 604.68 L 814.82 610.29 L 808.52 615.83 L 802.02 621.30 L 795.32 626.69 L 788.43 632.01 L 781.34 637.24 L 774.07 642.39 L 766.62 647.45 L 759.00 652.41 L 751.21 657.28 L 743.25 662.05 L 735.14 666.72 L 726.87 671.28 L 718.45 675.74 L 709.90 680.08 L 701.20 684.30 L 692.38 688.41 L 683.44 692.39 L 674.37 696.25 L 665.20 699.99 L 655.92 703.60 L 646.54 707.07 L 637.07 710.42 L 627.52 713.62 L 617.88 716.69 L 608.17 719.62 L 598.40 722.40 L 588.57 725.04 L 578.68 727.54 L 568.75 729.89 L 558.78 732.08 L 548.78 734.13 L 538.75 736.03 L 528.71 737.77 L 518.65 739.35 L 508.59 740.78 L 498.53 742.06 L 488.48 743.17 L 478.44 744.13 L 468.43 744.93 L 458.45 745.57 L 448.51 746.05 L 438.61 746.37 L 428.76 746.53 L 418.96 746.52 L 409.23 746.36 L 399.57 746.04 L 389.99 745.55 L 380.49 744.91 L 371.09 744.10 L 361.77 743.14 L 352.57 742.02 L 343.47 740.74 L 334.48 739.30 L 325.62 737.71 L 316.88 735.97 L 308.28 734.07 L 299.82 732.01 L 291.51 729.81 L 283.34 727.46 L 275.33 724.96 L 267.49 722.31 L 259.81 719.52 L 252.30 716.59 L 244.98 713.52 L 237.83 710.31 L 230.87 706.96 L 224.11 703.48 L 217.54 699.87 L 211.18 696.13 L 205.02 692.26 L 199.07 688.27 L 193.34 684.16 L 187.82 679.93 L 182.53 675.59 L 177.46 671.14 L 172.62 666.57 L 168.02 661.90 L 163.65 657.13 L 159.52 652.25 L 155.63 647.28 L 151.98 642.22 L 148.58 637.07 L 145.44 631.83 L 142.54 626.52 L 139.89 621.12 L 137.50 615.65 L 135.37 610.10 L 133.49 604.49 L 131.88 598.82 L 130.52 593.09 L 129.43 587.30 L 128.60 581.46 L 128.03 575.57 L 127.72 569.64 L 127.68 563.67 L 127.90 557.66 L 128.39 551.62 L 129.13 545.56 L 130.14 539.47 L 131.41 533.36 L 132.95 527.24 L 134.74 521.11 L 136.79 514.97 L 139.10 508.83 L 141.66 502.69 L 144.48 496.56 L 147.54 490.44 L 150.86 484.33 L 154.43 478.24 L 158.24 472.18 L 162.29 466.14 L 166.59 460.14 L 171.12 454.17 L 175.88 448.24 L 180.88 442.35 L 186.10 436.51 L 191.54 430.73 L 197.20 424.99 L 203.08 419.32 L 209.18 413.71 L 215.48 408.17 L 221.98 402.70 L 228.68 397.31 L 235.57 391.99 L 242.66 386.76 L 249.93 381.61 L 257.38 376.55 L 265.00 371.59 L 272.79 366.72 L 280.75 361.95 L 288.86 357.28 L 297.13 352.72 L 305.55 348.26 L 314.10 343.92 L 322.80 339.70 L 331.62 335.59 L 340.56 331.61 L 349.63 327.75 L 358.80 324.01 L 368.08 320.40 L 377.46 316.93 L 386.93 313.58 L 396.48 310.38 L 406.12 307.31 L 415.83 304.38 L 425.60 301.60 L 435.43 298.96 L 445.32 296.46 L 455.25 294.11 L 465.22 291.92 L 475.22 289.87 L 485.25 287.97 L 495.29 286.23 L 505.35 284.65 L 515.41 283.22 L 525.47 281.94 L 535.52 280.83 L 545.56 279.87 L 555.57 279.07 L 565.55 278.43 L 575.49 277.95 L 585.39 277.63 L 595.24 277.47 L 605.04 277.48 L 614.77 277.64 L 624.43 277.96 L 634.01 278.45 L 643.51 279.09 L 652.91 279.90 L 662.23 280.86 L 671.43 281.98 L 680.53 283.26 L 689.52 284.70 L 698.38 286.29 L 707.12 288.03 L 715.72 289.93 L 724.18 291.99 L 732.49 294.19 L 740.66 296.54 L 748.67 299.04 L 756.51 301.69 L 764.19 304.48 L 771.70 307.41 L 779.02 310.48 L 786.17 313.69 L 793.13 317.04 L 799.89 320.52 L 806.46 324.13 L 812.82 327.87 L 818.98 331.74 L 824.93 335.73 L 830.66 339.84 L 836.18 344.07 L 841.47 348.41 L 846.54 352.86 L 851.38 357.43 L 855.98 362.10 L 860.35 366.87 L 864.48 371.75 L 868.37 376.72 L 872.02 381.78 L 875.42 386.93 L 878.56 392.17 L 881.46 397.48 L 884.11 402.88 L 886.50 408.35 L 888.63 413.90 L 890.51 419.51 L 892.12 425.18 L 893.48 430.91" stroke="#B98A2B" stroke-width="4" opacity="0.48"/>
<path d="M 752.11 819.32 L 747.38 822.85 L 742.50 826.15 L 737.46 829.25 L 732.26 832.12 L 726.91 834.78 L 721.42 837.21 L 715.78 839.42 L 710.00 841.41 L 704.08 843.17 L 698.04 844.70 L 691.86 846.01 L 685.57 847.09 L 679.15 847.94 L 672.62 848.55 L 665.98 848.94 L 659.23 849.10 L 652.39 849.02 L 645.44 848.72 L 638.41 848.18 L 631.29 847.41 L 624.09 846.42 L 616.81 845.19 L 609.45 843.73 L 602.04 842.05 L 594.56 840.14 L 587.02 838.01 L 579.43 835.66 L 571.80 833.08 L 564.12 830.28 L 556.41 827.26 L 548.67 824.03 L 540.90 820.58 L 533.12 816.93 L 525.31 813.06 L 517.51 808.99 L 509.69 804.71 L 501.88 800.23 L 494.07 795.56 L 486.28 790.69 L 478.51 785.63 L 470.75 780.38 L 463.03 774.95 L 455.34 769.34 L 447.69 763.55 L 440.08 757.59 L 432.52 751.46 L 425.02 745.17 L 417.57 738.71 L 410.19 732.10 L 402.88 725.35 L 395.65 718.44 L 388.49 711.39 L 381.42 704.21 L 374.44 696.89 L 367.55 689.45 L 360.77 681.89 L 354.08 674.21 L 347.51 666.42 L 341.04 658.52 L 334.70 650.52 L 328.47 642.43 L 322.37 634.25 L 316.41 625.98 L 310.57 617.64 L 304.87 609.22 L 299.32 600.74 L 293.91 592.20 L 288.65 583.60 L 283.54 574.95 L 278.59 566.26 L 273.80 557.53 L 269.18 548.78 L 264.72 539.99 L 260.43 531.19 L 256.31 522.37 L 252.37 513.55 L 248.60 504.72 L 245.02 495.90 L 241.61 487.09 L 238.40 478.30 L 235.37 469.53 L 232.53 460.80 L 229.88 452.09 L 227.43 443.43 L 225.17 434.81 L 223.11 426.25 L 221.24 417.74 L 219.58 409.30 L 218.11 400.93 L 216.85 392.64 L 215.78 384.43 L 214.93 376.30 L 214.27 368.27 L 213.82 360.34 L 213.57 352.51 L 213.53 344.79 L 213.70 337.19 L 214.06 329.70 L 214.63 322.34 L 215.41 315.11 L 216.39 308.02 L 217.57 301.06 L 218.95 294.25 L 220.54 287.59 L 222.32 281.08 L 224.30 274.73 L 226.48 268.54 L 228.85 262.52 L 231.42 256.67 L 234.18 251.00 L 237.14 245.50 L 240.28 240.19 L 243.60 235.07 L 247.11 230.13 L 250.80 225.39 L 254.67 220.84 L 258.72 216.49 L 262.94 212.35 L 267.33 208.41 L 271.89 204.68 L 276.62 201.15 L 281.50 197.85 L 286.54 194.75 L 291.74 191.88 L 297.09 189.22 L 302.58 186.79 L 308.22 184.58 L 314.00 182.59 L 319.92 180.83 L 325.96 179.30 L 332.14 177.99 L 338.43 176.91 L 344.85 176.06 L 351.38 175.45 L 358.02 175.06 L 364.77 174.90 L 371.61 174.98 L 378.56 175.28 L 385.59 175.82 L 392.71 176.59 L 399.91 177.58 L 407.19 178.81 L 414.55 180.27 L 421.96 181.95 L 429.44 183.86 L 436.98 185.99 L 444.57 188.34 L 452.20 190.92 L 459.88 193.72 L 467.59 196.74 L 475.33 199.97 L 483.10 203.42 L 490.88 207.07 L 498.69 210.94 L 506.49 215.01 L 514.31 219.29 L 522.12 223.77 L 529.93 228.44 L 537.72 233.31 L 545.49 238.37 L 553.25 243.62 L 560.97 249.05 L 568.66 254.66 L 576.31 260.45 L 583.92 266.41 L 591.48 272.54 L 598.98 278.83 L 606.43 285.29 L 613.81 291.90 L 621.12 298.65 L 628.35 305.56 L 635.51 312.61 L 642.58 319.79 L 649.56 327.11 L 656.45 334.55 L 663.23 342.11 L 669.92 349.79 L 676.49 357.58 L 682.96 365.48 L 689.30 373.48 L 695.53 381.57 L 701.63 389.75 L 707.59 398.02 L 713.43 406.36 L 719.13 414.78 L 724.68 423.26 L 730.09 431.80 L 735.35 440.40 L 740.46 449.05 L 745.41 457.74 L 750.20 466.47 L 754.82 475.22 L 759.28 484.01 L 763.57 492.81 L 767.69 501.63 L 771.63 510.45 L 775.40 519.28 L 778.98 528.10 L 782.39 536.91 L 785.60 545.70 L 788.63 554.47 L 791.47 563.20 L 794.12 571.91 L 796.57 580.57 L 798.83 589.19 L 800.89 597.75 L 802.76 606.26 L 804.42 614.70 L 805.89 623.07 L 807.15 631.36 L 808.22 639.57 L 809.07 647.70 L 809.73 655.73 L 810.18 663.66 L 810.43 671.49 L 810.47 679.21 L 810.30 686.81 L 809.94 694.30 L 809.37 701.66 L 808.59 708.89 L 807.61 715.98 L 806.43 722.94 L 805.05 729.75 L 803.46 736.41 L 801.68 742.92 L 799.70 749.27 L 797.52 755.46 L 795.15 761.48 L 792.58 767.33 L 789.82 773.00 L 786.86 778.50 L 783.72 783.81 L 780.40 788.93 L 776.89 793.87 L 773.20 798.61 L 769.33 803.16 L 765.28 807.51 L 761.06 811.65 L 756.67 815.59 L 752.11 819.32" stroke="#158A98" stroke-width="4" opacity="0.4"/>
<path d="M 328.91 856.35 L 323.77 853.47 L 318.76 850.35 L 313.88 847.00 L 309.14 843.42 L 304.54 839.62 L 300.08 835.59 L 295.77 831.33 L 291.60 826.86 L 287.59 822.18 L 283.73 817.28 L 280.02 812.17 L 276.48 806.85 L 273.09 801.34 L 269.87 795.62 L 266.82 789.71 L 263.93 783.61 L 261.22 777.33 L 258.67 770.86 L 256.30 764.22 L 254.10 757.40 L 252.09 750.41 L 250.24 743.27 L 248.58 735.96 L 247.10 728.50 L 245.80 720.89 L 244.69 713.13 L 243.75 705.24 L 243.00 697.22 L 242.44 689.07 L 242.06 680.80 L 241.86 672.41 L 241.85 663.92 L 242.03 655.31 L 242.38 646.62 L 242.93 637.82 L 243.66 628.95 L 244.57 619.99 L 245.67 610.96 L 246.95 601.86 L 248.41 592.70 L 250.05 583.48 L 251.87 574.21 L 253.87 564.91 L 256.04 555.56 L 258.39 546.19 L 260.92 536.79 L 263.61 527.37 L 266.48 517.95 L 269.52 508.52 L 272.72 499.09 L 276.08 489.67 L 279.61 480.27 L 283.30 470.89 L 287.14 461.54 L 291.14 452.22 L 295.29 442.94 L 299.58 433.71 L 304.03 424.54 L 308.61 415.42 L 313.34 406.37 L 318.20 397.39 L 323.19 388.49 L 328.31 379.68 L 333.56 370.95 L 338.93 362.33 L 344.42 353.80 L 350.03 345.38 L 355.75 337.08 L 361.57 328.90 L 367.49 320.84 L 373.52 312.92 L 379.64 305.13 L 385.85 297.48 L 392.15 289.98 L 398.53 282.63 L 404.98 275.44 L 411.51 268.41 L 418.11 261.55 L 424.78 254.86 L 431.50 248.35 L 438.28 242.01 L 445.11 235.86 L 451.98 229.90 L 458.90 224.14 L 465.85 218.57 L 472.83 213.20 L 479.85 208.04 L 486.88 203.09 L 493.93 198.34 L 500.99 193.82 L 508.06 189.51 L 515.13 185.42 L 522.20 181.55 L 529.27 177.91 L 536.32 174.50 L 543.35 171.33 L 550.37 168.38 L 557.36 165.67 L 564.31 163.20 L 571.23 160.97 L 578.11 158.98 L 584.95 157.23 L 591.73 155.72 L 598.46 154.46 L 605.13 153.44 L 611.74 152.67 L 618.28 152.14 L 624.74 151.86 L 631.13 151.83 L 637.44 152.04 L 643.66 152.51 L 649.79 153.21 L 655.82 154.17 L 661.76 155.37 L 667.60 156.81 L 673.32 158.50 L 678.94 160.42 L 684.45 162.59 L 689.83 165.00 L 695.09 167.65 L 700.23 170.53 L 705.24 173.65 L 710.12 177.00 L 714.86 180.58 L 719.46 184.38 L 723.92 188.41 L 728.23 192.67 L 732.40 197.14 L 736.41 201.82 L 740.27 206.72 L 743.98 211.83 L 747.52 217.15 L 750.91 222.66 L 754.13 228.38 L 757.18 234.29 L 760.07 240.39 L 762.78 246.67 L 765.33 253.14 L 767.70 259.78 L 769.90 266.60 L 771.91 273.59 L 773.76 280.73 L 775.42 288.04 L 776.90 295.50 L 778.20 303.11 L 779.31 310.87 L 780.25 318.76 L 781.00 326.78 L 781.56 334.93 L 781.94 343.20 L 782.14 351.59 L 782.15 360.08 L 781.97 368.69 L 781.62 377.38 L 781.07 386.18 L 780.34 395.05 L 779.43 404.01 L 778.33 413.04 L 777.05 422.14 L 775.59 431.30 L 773.95 440.52 L 772.13 449.79 L 770.13 459.09 L 767.96 468.44 L 765.61 477.81 L 763.08 487.21 L 760.39 496.63 L 757.52 506.05 L 754.48 515.48 L 751.28 524.91 L 747.92 534.33 L 744.39 543.73 L 740.70 553.11 L 736.86 562.46 L 732.86 571.78 L 728.71 581.06 L 724.42 590.29 L 719.97 599.46 L 715.39 608.58 L 710.66 617.63 L 705.80 626.61 L 700.81 635.51 L 695.69 644.32 L 690.44 653.05 L 685.07 661.67 L 679.58 670.20 L 673.97 678.62 L 668.25 686.92 L 662.43 695.10 L 656.51 703.16 L 650.48 711.08 L 644.36 718.87 L 638.15 726.52 L 631.85 734.02 L 625.47 741.37 L 619.02 748.56 L 612.49 755.59 L 605.89 762.45 L 599.22 769.14 L 592.50 775.65 L 585.72 781.99 L 578.89 788.14 L 572.02 794.10 L 565.10 799.86 L 558.15 805.43 L 551.17 810.80 L 544.15 815.96 L 537.12 820.91 L 530.07 825.66 L 523.01 830.18 L 515.94 834.49 L 508.87 838.58 L 501.80 842.45 L 494.73 846.09 L 487.68 849.50 L 480.65 852.67 L 473.63 855.62 L 466.64 858.33 L 459.69 860.80 L 452.77 863.03 L 445.89 865.02 L 439.05 866.77 L 432.27 868.28 L 425.54 869.54 L 418.87 870.56 L 412.26 871.33 L 405.72 871.86 L 399.26 872.14 L 392.87 872.17 L 386.56 871.96 L 380.34 871.49 L 374.21 870.79 L 368.18 869.83 L 362.24 868.63 L 356.40 867.19 L 350.68 865.50 L 345.06 863.58 L 339.55 861.41 L 334.17 859.00 L 328.91 856.35" stroke="#158A98" stroke-width="4" opacity="0.42"/>
<circle cx="226" cy="368" r="10" fill="#B98A2B" opacity="0.85"/>
<circle cx="790" cy="360" r="10" fill="#158A98" opacity="0.85"/>
<circle cx="720" cy="710" r="10" fill="#B98A2B" opacity="0.85"/>
<circle cx="304" cy="694" r="10" fill="#158A98" opacity="0.85"/>
<circle cx="512" cy="178" r="10" fill="#B98A2B" opacity="0.85"/>
</g>
</svg>